<?xml version="1.0" encoding="UTF-8" standalone="no"?>
<svg
   data-v-7a7a37b1=""
   width="1020"
   height="1020"
   id="svg"
   shape-rendering="crispEdges"
   version="1.1"
   sodipodi:docname="print_logo_small.svg"
   inkscape:version="1.4 (e7c3feb100, 2024-10-09)"
   xml:space="preserve"
   xmlns:inkscape="http://www.inkscape.org/namespaces/inkscape"
   xmlns:sodipodi="http://sodipodi.sourceforge.net/DTD/sodipodi-0.dtd"
   xmlns="http://www.w3.org/2000/svg"
   xmlns:svg="http://www.w3.org/2000/svg"><sodipodi:namedview
     id="namedview639"
     pagecolor="#000000"
     bordercolor="#eeeeee"
     borderopacity="1"
     inkscape:showpageshadow="0"
     inkscape:pageopacity="0"
     inkscape:pagecheckerboard="0"
     inkscape:deskcolor="#212121"
     inkscape:zoom="0.50952599"
     inkscape:cx="364.06386"
     inkscape:cy="607.42731"
     inkscape:window-width="1433"
     inkscape:window-height="1128"
     inkscape:window-x="0"
     inkscape:window-y="0"
     inkscape:window-maximized="0"
     inkscape:current-layer="svg" /><defs
     data-v-7a7a37b1=""
     id="defs1"><!--v-if--><filter
       id="filmGrain"
       data-v-7a7a37b1=""><feTurbulence
         type="turbulence"
         baseFrequency="0.2"
         numOctaves="1"
         seed="10"
         result="turb"
         data-v-7a7a37b1=""
         id="feTurbulence1" /><feComponentTransfer
         in="turb"
         data-v-7a7a37b1=""
         id="feComponentTransfer1"><feFuncR
           type="linear"
           slope="0.2"
           data-v-7a7a37b1=""
           id="feFuncR1" /><feFuncG
           type="linear"
           slope="0.2"
           data-v-7a7a37b1=""
           id="feFuncG1" /><feFuncB
           type="linear"
           slope="0.2"
           data-v-7a7a37b1=""
           id="feFuncB1" /><feFuncA
           type="linear"
           slope="0.15"
           data-v-7a7a37b1=""
           id="feFuncA1" /></feComponentTransfer></filter><!--v-if--></defs><!--v-if--><!--v-if--><g
     id="g6"
     transform="translate(-0.56641,-0.325195)"><path
       id="polygon533"
       style="display:inline;fill:#ff0000;stroke-width:1.27252"
       inkscape:label="red"
       d="m 297.28711,203.39453 -63.62695,63.62695 -63.625,63.62696 v 127.25195 l 63.625,63.625 63.62695,63.62695 h 127.25195 v 104.85157 h 22.40039 V 573.95117 H 319.6875 l -63.625,-63.625 -63.62695,-63.62695 V 319.44727 l 63.62695,-63.625 52.42578,-52.42774 z m 44.80078,116.05274 v 11.20117 h 82.45117 V 435.5 h 22.40039 V 319.44727 Z m 254.50586,254.5039 v 11.20117 h 82.45117 127.25196 L 795.0957,573.95117 h -93.65039 z m -299.30664,138.45313 -63.62695,63.62695 -63.625,63.625 h 127.25195 127.25195 l 11.19922,-11.19922 H 319.6875 192.43555 l 63.62695,-63.62695 52.42578,-52.42578 z" /><path
       id="path640"
       style="display:inline;fill:#0000ff;stroke-width:1.27252"
       inkscape:label="blue"
       d="m 342.08789,180.99414 -11.20117,11.20117 h 116.05273 l 63.62696,63.62696 63.62695,63.625 v 127.25195 h 127.25195 l 63.625,63.62695 52.42774,52.42578 h 33.59961 L 787.4707,499.125 723.8457,435.5 H 596.59375 V 308.24805 L 532.9668,244.62109 469.33984,180.99414 Z M 319.6875,330.64844 V 446.69922 H 424.53906 V 435.5 H 342.08789 V 330.64844 Z m 254.50586,254.5039 v 116.05274 l -63.62695,63.625 -52.42579,52.42578 h 11.19922 l 63.62696,-63.625 63.62695,-63.62695 V 585.15234 Z m -232.10547,104.85157 -11.20117,11.20117 h 93.65234 v -11.20117 z" /><path
       id="path651"
       style="display:inline;fill:#00ff00;stroke-width:1.27252"
       inkscape:label="green"
       d="m 319.68751,192.19533 -11.19923,11.1992 h 11.19923 l 11.19921,-11.1992 z m 464.20899,370.55661 11.19921,11.19924 h 33.60154 l -11.1992,-11.19924 z M 319.68751,701.20507 308.48828,712.4043 h 11.19923 l 11.19921,-11.19923 z m 127.25196,116.05078 -11.2012,11.20117 h 11.2012 l 11.20117,-11.20117 z" /><path
       id="path1"
       style="display:inline;fill:#ffff00;stroke-width:1.27252"
       inkscape:label="yellow"
       d="m 308.48828,203.39453 -52.42578,52.42774 -63.62697,63.62501 v 127.25195 l 63.62697,63.62694 63.62501,63.62501 H 446.93947 V 690.0039 h 22.40037 V 562.75194 H 342.08789 L 278.46288,499.125 214.83594,435.49999 V 308.24804 l 63.62694,-63.62694 41.22463,-41.22657 z m 33.59961,104.85351 v 11.19924 h 104.85158 v 116.05271 h 22.40037 V 308.24804 Z m 254.50587,254.5039 v 11.19924 H 701.4453 795.09571 L 783.8965,562.75194 H 723.84571 Z M 308.48828,712.4043 256.0625,764.83008 192.43553,828.45702 h 127.25198 116.05076 l 11.2012,-11.20117 H 342.08789 214.83594 l 63.62694,-63.62498 41.22463,-41.22657 z" /><path
       id="path4"
       style="display:inline;fill:#00ffff;stroke-width:1.27252"
       inkscape:label="cyan"
       d="m 330.88672,192.19533 -11.19921,11.1992 h 104.85155 l 63.62697,63.62695 63.62498,63.62697 V 457.9004 h 127.25391 l 63.62501,63.62498 41.22657,41.22656 h 33.60155 L 765.07031,510.32617 701.4453,446.69923 H 574.19335 V 319.44728 L 510.56641,255.82227 446.93947,192.19533 Z M 297.28711,330.64845 V 457.9004 H 424.53906 V 446.69923 H 319.68751 V 330.64845 Z m 254.5039,254.5039 V 712.4043 l -63.62498,63.62695 -41.22656,41.2246 h 11.20117 l 52.42577,-52.42577 63.62694,-63.62501 V 585.15235 Z M 330.88672,701.20507 319.68751,712.4043 h 104.85155 v -11.19923 z" /><path
       id="path2"
       style="fill:#ff00ff;stroke-width:1.27252"
       inkscape:label="magenta"
       d="m 319.68751,319.44728 v 11.20117 h 22.40038 v -11.20117 z m 104.85155,116.05271 v 11.19924 h 22.40041 v -11.19924 z m 149.65429,138.45119 v 11.20117 h 22.40041 V 573.95118 Z M 424.53906,690.0039 v 11.20117 h 22.40041 V 690.0039 Z" /><path
       id="path3"
       style="fill:#ffffff;stroke-width:1.27252"
       inkscape:label="white"
       d="m 319.68751,203.39453 -41.22463,41.22657 -63.62694,63.62694 v 127.25195 l 63.62694,63.62501 63.62501,63.62694 H 469.33984 V 690.0039 h -22.40037 v 11.20117 H 424.53906 V 712.4043 H 319.68751 l -41.22463,41.22657 -63.62694,63.62498 h 127.25195 104.85158 l 41.22656,-41.2246 63.62498,-63.62695 V 585.15235 h 22.40234 v -11.20117 h 22.40041 V 562.75194 H 723.84571 783.8965 L 742.66993,521.52538 679.04492,457.9004 H 551.79101 V 330.64845 l -63.62498,-63.62697 -63.62697,-63.62695 z m 22.40038,104.85351 h 127.25195 v 127.25195 h -22.40037 v 11.19924 H 424.53906 V 457.9004 H 297.28711 V 330.64845 h 22.4004 v -11.20117 h 22.40038 z" /></g></svg>
